HIERARCHY
ROOT hip
{
  OFFSET 0 0 0
  CHANNELS 6 Xposition Yposition Zposition Zrotation Yrotation Xrotation
  JOINT abdomen
  {
    OFFSET 0 20.6881 -0.73152
    CHANNELS 3 Zrotation Xrotation Yrotation
    JOINT chest
    {
      OFFSET 0 11.7043 -0.48768
      CHANNELS 3 Zrotation Xrotation Yrotation
      JOINT neck
      {
        OFFSET 0 22.1894 -2.19456
        CHANNELS 3 Zrotation Xrotation Yrotation
        JOINT head
        {
          OFFSET -0.24384 7.07133 1.2192
          CHANNELS 3 Zrotation Xrotation Yrotation
          JOINT leftEye
          {
            OFFSET 4.14528 8.04674 8.04672
            CHANNELS 3 Zrotation Xrotation Yrotation
            End Site
            {
              OFFSET 1 0 0
            }
          }
          JOINT rightEye
          {
            OFFSET -3.6576 8.04674 8.04672
            CHANNELS 3 Zrotation Xrotation Yrotation
            End Site
            {
              OFFSET 1 0 0
            }
          }
        }
      }
      JOINT rCollar
      {
        OFFSET -2.68224 19.2634 -4.8768
        CHANNELS 3 Zrotation Xrotation Yrotation
        JOINT rShldr
        {
          OFFSET -8.77824 -1.95073 1.46304
          CHANNELS 3 Zrotation Xrotation Yrotation
          JOINT rForeArm
          {
            OFFSET -28.1742 -1.7115 0.48768
            CHANNELS 3 Zrotation Xrotation Yrotation
            JOINT rHand
            {
              OFFSET -22.5879 0.773209 7.07136
              CHANNELS 3 Zrotation Xrotation Yrotation
              JOINT rThumb1
              {
                OFFSET -1.2192 -0.487915 3.41376
                CHANNELS 3 Zrotation Xrotation Yrotation
                JOINT rThumb2
                {
                  OFFSET -3.37035 -0.52449 3.41376
                  CHANNELS 3 Zrotation Xrotation Yrotation
                  End Site
                  {
                    OFFSET -1.78271 -1.18214 1.43049
                  }
                }
              }
              JOINT rIndex1
              {
                OFFSET -7.75947 0.938293 5.60832
                CHANNELS 3 Zrotation Xrotation Yrotation
                JOINT rIndex2
                {
                  OFFSET -2.54057 -0.884171 1.56538
                  CHANNELS 3 Zrotation Xrotation Yrotation
                  End Site
                  {
                    OFFSET -1.62519 -0.234802 1.16502
                  }
                }
              }
              JOINT rMid1
              {
                OFFSET -8.24714 1.18213 3.41376
                CHANNELS 3 Zrotation Xrotation Yrotation
                JOINT rMid2
                {
                  OFFSET -3.10165 -0.590103 1.0647
                  CHANNELS 3 Zrotation Xrotation Yrotation
                  End Site
                  {
                    OFFSET -2.48547 -0.328903 0.83742
                  }
                }
              }
              JOINT rRing1
              {
                OFFSET -8.82822 0.546677 1.51678
                CHANNELS 3 Zrotation Xrotation Yrotation
                JOINT rRing2
                {
                  OFFSET -2.60934 -0.819778 -0.0198488
                  CHANNELS 3 Zrotation Xrotation Yrotation
                  End Site
                  {
                    OFFSET -2.33842 -0.294052 0.168128
                  }
                }
              }
              JOINT rPinky1
              {
                OFFSET -8.27202 -0.0477905 -0.4584
                CHANNELS 3 Zrotation Xrotation Yrotation
                JOINT rPinky2
                {
                  OFFSET -1.82734 -0.647385 -0.700984
                  CHANNELS 3 Zrotation Xrotation Yrotation
                  End Site
                  {
                    OFFSET -1.69225 -0.51767 -0.607171
                  }
                }
              }
            }
          }
        }
      }
      JOINT lCollar
      {
        OFFSET 2.68224 19.2634 -4.8768
        CHANNELS 3 Zrotation Xrotation Yrotation
        JOINT lShldr
        {
          OFFSET 8.77824 -1.95073 1.46304
          CHANNELS 3 Zrotation Xrotation Yrotation
          JOINT lForeArm
          {
            OFFSET 28.1742 -1.7115 0.48768
            CHANNELS 3 Zrotation Xrotation Yrotation
            JOINT lHand
            {
              OFFSET 22.5879 0.773209 7.07136
              CHANNELS 3 Zrotation Xrotation Yrotation
              JOINT lThumb1
              {
                OFFSET 1.2192 -0.487915 3.41376
                CHANNELS 3 Zrotation Xrotation Yrotation
                JOINT lThumb2
                {
                  OFFSET 3.37035 -0.52449 3.41376
                  CHANNELS 3 Zrotation Xrotation Yrotation
                  End Site
                  {
                    OFFSET 1.78271 -1.18214 1.43049
                  }
                }
              }
              JOINT lIndex1
              {
                OFFSET 7.75947 0.938293 5.60832
                CHANNELS 3 Zrotation Xrotation Yrotation
                JOINT lIndex2
                {
                  OFFSET 2.54057 -0.884171 1.56538
                  CHANNELS 3 Zrotation Xrotation Yrotation
                  End Site
                  {
                    OFFSET 1.62519 -0.234802 1.16502
                  }
                }
              }
              JOINT lMid1
              {
                OFFSET 8.24714 1.18213 3.41376
                CHANNELS 3 Zrotation Xrotation Yrotation
                JOINT lMid2
                {
                  OFFSET 3.10165 -0.590103 1.0647
                  CHANNELS 3 Zrotation Xrotation Yrotation
                  End Site
                  {
                    OFFSET 2.48547 -0.328903 0.83742
                  }
                }
              }
              JOINT lRing1
              {
                OFFSET 8.82822 0.546677 1.51678
                CHANNELS 3 Zrotation Xrotation Yrotation
                JOINT lRing2
                {
                  OFFSET 2.60934 -0.819778 -0.0198488
                  CHANNELS 3 Zrotation Xrotation Yrotation
                  End Site
                  {
                    OFFSET 2.33842 -0.294052 0.168128
                  }
                }
              }
              JOINT lPinky1
              {
                OFFSET 8.27202 -0.0477905 -0.4584
                CHANNELS 3 Zrotation Xrotation Yrotation
                JOINT lPinky2
                {
                  OFFSET 1.82734 -0.647385 -0.700984
                  CHANNELS 3 Zrotation Xrotation Yrotation
                  End Site
                  {
                    OFFSET 1.69225 -0.51767 -0.607171
                  }
                }
              }
            }
          }
        }
      }
    }
  }
  JOINT rButtock
  {
    OFFSET -8.77824 4.35084 1.2192
    CHANNELS 3 Zrotation Xrotation Yrotation
    JOINT rThigh
    {
      OFFSET 0 -1.70687 -2.19456
      CHANNELS 3 Zrotation Xrotation Yrotation
      JOINT rShin
      {
        OFFSET 0 -36.8199 0.73152
        CHANNELS 3 Zrotation Xrotation Yrotation
        JOINT rFoot
        {
          OFFSET 0.73152 -45.1104 -5.12064
          CHANNELS 3 Zrotation Xrotation Yrotation
          End Site
          {
            OFFSET -1.1221 -3.69964 12.103
          }
        }
      }
    }
  }
  JOINT lButtock
  {
    OFFSET 8.77824 4.35084 1.2192
    CHANNELS 3 Zrotation Xrotation Yrotation
    JOINT lThigh
    {
      OFFSET 0 -1.70687 -2.19456
      CHANNELS 3 Zrotation Xrotation Yrotation
      JOINT lShin
      {
        OFFSET 0 -36.8199 0.73152
        CHANNELS 3 Zrotation Xrotation Yrotation
        JOINT lFoot
        {
          OFFSET -0.73152 -45.1104 -5.12064
          CHANNELS 3 Zrotation Xrotation Yrotation
          End Site
          {
            OFFSET 1.1221 -3.69964 12.103
          }
        }
      }
    }
  }
}
MOTION
Frames:	6
Frame Time:	0.03333
1.2215000022820277 67.92610287666321 0.04699999844888225 0.3971945643424988 13.310809135437012 6.232508182525635 -10.122208595275879 7.963636875152588 -10.748472213745117 8.718587875366211 -6.281498432159424 -2.7315285205841064 -9.242409706115723 24.723400115966797 -19.606203079223633 19.37360191345215 -22.531299591064453 -35.23109436035156 -0.0 0.0 -0.0 -0.0 0.0 -0.0 -0.0 -0.0 -0.0 66.49420166015625 35.18709945678711 -3.183349132537842 -17.415903091430664 -10.072210311889648 32.722694396972656 -0.004590378142893314 1.9331457614898682 0.27207863330841064 -0.0 -0.0 -0.0 -0.0 -0.0 -0.0 -0.0 -0.0 -0.0 7.730902194976807 5.47491455078125 0.4173222780227661 -0.0 -0.0 -0.0 2.905566453933716 0.9650754332542419 0.10300818830728531 -0.0 -0.0 -0.0 10.278596878051758 0.7318810820579529 0.026273518800735474 -0.0 -0.0 -0.0 2.221662998199463 -0.7334509491920471 -0.20832103490829468 -0.0 -0.0 -0.0 -74.2280044555664 32.861793518066406 -7.437065124511719 17.539594650268555 -10.197308540344238 -32.99309539794922 0.10024131089448929 8.34299373626709 -1.1820363998413086 -0.0 0.0 -0.0 -0.0 0.0 -0.0 -0.0 0.0 -0.0 -7.730902194976807 5.47491455078125 -0.4173222780227661 -0.0 0.0 -0.0 -2.905566453933716 0.9650754332542419 -0.10300818830728531 -0.0 0.0 -0.0 -10.278596878051758 0.7318810820579529 -0.026273518800735474 -0.0 0.0 -0.0 -2.221662998199463 -0.7334509491920471 0.20832103490829468 -0.0 0.0 -0.0 -35.184608459472656 -63.09050369262695 -31.168310165405273 -2.065434217453003 70.41910552978516 2.7022864818573 2.699263572692871 -7.179013729095459 14.304607391357422 0.0 0.0 0.0 4.470365047454834 8.191827774047852 3.5828680992126465 -0.05728286877274513 35.8411979675293 -2.3196828365325928 23.62909698486328 -21.205793380737305 42.075294494628906
1.2170000022138083 67.92430281639099 0.04299999854993075 0.37951675057411194 13.342710494995117 6.211897373199463 -10.085902214050293 7.982746124267578 -10.69510555267334 8.690386772155762 -6.264380931854248 -2.718919515609741 -9.33531665802002 24.76239585876465 -19.573101043701172 19.51500129699707 -22.50229835510254 -35.161094665527344 -0.0 0.0 -0.0 -0.0 0.0 -0.0 -0.0 0.0 -0.0 66.54290008544922 35.117408752441406 -3.1960620880126953 -17.39289665222168 -10.048605918884277 32.67219543457031 -0.005277110729366541 2.0738582611083984 0.29155564308166504 -0.0 0.0 -0.0 -0.0 0.0 -0.0 -0.0 0.0 -0.0 7.730902194976807 5.47491455078125 0.4173222780227661 -0.0 0.0 -0.0 2.905566453933716 0.9650754332542419 0.10300818830728531 -0.0 0.0 -0.0 10.278596878051758 0.7318810820579529 0.026273518800735474 -0.0 0.0 -0.0 2.221662998199463 -0.7334509491920471 -0.20832103490829468 -0.0 0.0 -0.0 -74.17250061035156 32.845699310302734 -7.480031967163086 17.5364990234375 -10.196101188659668 -32.987796783447266 0.09966608136892319 8.315204620361328 -1.1780914068222046 -0.0 0.0 -0.0 -0.0 0.0 -0.0 -0.0 0.0 -0.0 -7.730902194976807 5.47491455078125 -0.4173222780227661 -0.0 0.0 -0.0 -2.905566453933716 0.9650754332542419 -0.10300818830728531 -0.0 0.0 -0.0 -10.278596878051758 0.7318810820579529 -0.026273518800735474 -0.0 0.0 -0.0 -2.221662998199463 -0.7334509491920471 0.20832103490829468 -0.0 0.0 -0.0 -35.16619873046875 -63.0651969909668 -31.188995361328125 -2.0635812282562256 70.41339111328125 2.695411205291748 2.6916861534118652 -7.152978897094727 14.28601360321045 0.0 0.0 0.0 4.516878128051758 8.17503833770752 3.5975794792175293 -0.05642811208963394 35.89869689941406 -2.321648359298706 23.652297973632812 -21.274198532104492 42.03179931640625
1.2233000021637963 67.92060136795044 0.029999998514540493 0.3250662386417389 13.345216751098633 6.2018208503723145 -10.063298225402832 7.940000534057617 -10.66609001159668 8.687131881713867 -6.248201847076416 -2.71030330657959 -9.40117359161377 24.827903747558594 -19.531587600708008 19.6184024810791 -22.549489974975586 -35.0713005065918 -0.0 0.0 -0.0 -0.0 0.0 -0.0 -0.0 0.0 -0.0 66.52640533447266 35.146202087402344 -3.203029155731201 -17.37661361694336 -10.031766891479492 32.63631057739258 -0.005809835623949766 2.1754608154296875 0.30599334836006165 -0.0 0.0 -0.0 -0.0 0.0 -0.0 -0.0 0.0 -0.0 7.730902194976807 5.47491455078125 0.4173222780227661 -0.0 0.0 -0.0 2.905566453933716 0.9650754332542419 0.10300818830728531 -0.0 0.0 -0.0 10.278596878051758 0.7318810820579529 0.026273518800735474 -0.0 0.0 -0.0 2.221662998199463 -0.7334509491920471 -0.20832103490829468 -0.0 0.0 -0.0 -74.16209411621094 32.80710220336914 -7.492048740386963 17.531808853149414 -10.192157745361328 -32.97830581665039 0.08667155355215073 8.368348121643066 -1.1846799850463867 -0.0 0.0 -0.0 -0.0 0.0 -0.0 -0.0 0.0 -0.0 -7.730902194976807 5.47491455078125 -0.4173222780227661 -0.0 0.0 -0.0 -2.905566453933716 0.9650754332542419 -0.10300818830728531 -0.0 0.0 -0.0 -10.278596878051758 0.7318810820579529 -0.026273518800735474 -0.0 0.0 -0.0 -2.221662998199463 -0.7334509491920471 0.20832103490829468 -0.0 0.0 -0.0 -35.22261047363281 -63.09859848022461 -31.28011703491211 -2.0594820976257324 70.41371154785156 2.6915225982666016 2.6880836486816406 -7.11587381362915 14.286703109741211 0.0 0.0 0.0 4.529690742492676 8.110121726989746 3.619337797164917 -0.05564630404114723 35.959800720214844 -2.3235673904418945 23.664194107055664 -21.289901733398438 42.0225944519043
1.232300002300235 67.91689991950989 0.03099999848927837 0.3513047695159912 13.290698051452637 6.239890098571777 -10.054389953613281 7.835361003875732 -10.661407470703125 8.708819389343262 -6.232973575592041 -2.7053346633911133 -9.440048217773438 24.9197940826416 -19.481796264648438 19.684200286865234 -22.672897338867188 -34.96179962158203 -0.0 0.0 -0.0 -0.0 0.0 -0.0 -0.0 0.0 -0.0 66.44478607177734 35.27349853515625 -3.204242706298828 -17.36701202392578 -10.021964073181152 32.61530685424805 -0.006150343921035528 2.238250255584717 0.3148379325866699 -0.0 0.0 -0.0 -0.0 0.0 -0.0 -0.0 0.0 -0.0 7.730902194976807 5.47491455078125 0.4173222780227661 -0.0 0.0 -0.0 2.905566453933716 0.9650754332542419 0.10300818830728531 -0.0 0.0 -0.0 10.278596878051758 0.7318810820579529 0.026273518800735474 -0.0 0.0 -0.0 2.221662998199463 -0.7334509491920471 -0.20832103490829468 -0.0 0.0 -0.0 -74.1968994140625 32.745792388916016 -7.473177909851074 17.525606155395508 -10.185696601867676 -32.964603424072266 0.08948411792516708 8.50210189819336 -1.2038112878799438 -0.0 0.0 -0.0 -0.0 0.0 -0.0 -0.0 0.0 -0.0 -7.730902194976807 5.47491455078125 -0.4173222780227661 -0.0 0.0 -0.0 -2.905566453933716 0.9650754332542419 -0.10300818830728531 -0.0 0.0 -0.0 -10.278596878051758 0.7318810820579529 -0.026273518800735474 -0.0 0.0 -0.0 -2.221662998199463 -0.7334509491920471 0.20832103490829468 -0.0 0.0 -0.0 -35.354705810546875 -63.19051742553711 -31.442506790161133 -2.0578505992889404 70.4200210571289 2.6941351890563965 2.6884756088256836 -7.067610740661621 14.306692123413086 0.0 0.0 0.0 4.508950233459473 7.997099876403809 3.648195505142212 -0.05467214435338974 36.02450180053711 -2.3254339694976807 23.664695739746094 -21.252803802490234 42.04779815673828
1.2387000022840766 67.91689991950989 0.025999998615588993 0.3609544634819031 13.30311107635498 6.204923629760742 -10.06479549407959 7.852293491363525 -10.611296653747559 8.699357032775879 -6.241805553436279 -2.691201686859131 -9.440235137939453 24.908302307128906 -19.471996307373047 19.656497955322266 -22.65159034729004 -34.948299407958984 -0.0 0.0 -0.0 -0.0 0.0 -0.0 0.0 0.0 0.0 66.39130401611328 35.278202056884766 -3.159067153930664 -17.365909576416016 -10.02087116241455 32.6128044128418 -0.006177417002618313 2.2436652183532715 0.3154604136943817 -0.0 0.0 -0.0 -0.0 0.0 -0.0 -0.0 0.0 -0.0 7.730902194976807 5.47491455078125 0.4173222780227661 -0.0 0.0 -0.0 2.905566453933716 0.9650754332542419 0.10300818830728531 -0.0 0.0 -0.0 10.278596878051758 0.7318810820579529 0.026273518800735474 -0.0 0.0 -0.0 2.221662998199463 -0.7334509491920471 -0.20832103490829468 0.0 0.0 0.0 -74.13529968261719 32.777896881103516 -7.516899585723877 17.52878761291504 -10.188920021057129 -32.971588134765625 0.1040952280163765 8.525629043579102 -1.2083019018173218 -0.0 0.0 -0.0 -0.0 0.0 -0.0 -0.0 0.0 -0.0 -7.730902194976807 5.47491455078125 -0.4173222780227661 -0.0 0.0 -0.0 -2.905566453933716 0.9650754332542419 -0.10300818830728531 -0.0 0.0 -0.0 -10.278596878051758 0.7318810820579529 -0.026273518800735474 -0.0 0.0 -0.0 -2.221662998199463 -0.7334509491920471 0.20832103490829468 -0.0 0.0 -0.0 -35.38620376586914 -63.20480728149414 -31.471006393432617 -2.0575954914093018 70.41830444335938 2.6951940059661865 2.684203624725342 -7.0289154052734375 14.310600280761719 0.0 0.0 0.0 4.48891019821167 7.9766435623168945 3.6586966514587402 -0.05365251377224922 36.0525016784668 -2.324781894683838 23.662900924682617 -21.230199813842773 42.06290054321289
1.2427000021830281 67.91589856147766 0.019999998767161742 0.371608167886734 13.289111137390137 6.209206581115723 -10.094802856445312 7.990887641906738 -10.515792846679688 8.658705711364746 -6.274686813354492 -2.6678006649017334 -9.40169906616211 24.793399810791016 -19.502094268798828 19.535303115844727 -22.485502243041992 -35.03110122680664 -0.0 0.0 -0.0 -0.0 0.0 -0.0 -0.0 -0.0 -0.0 66.36620330810547 35.15999984741211 -3.0676913261413574 -17.373294830322266 -10.028519630432129 32.62908935546875 -0.005903442390263081 2.1922197341918945 0.30854594707489014 -0.0 0.0 -0.0 -0.0 0.0 -0.0 -0.0 0.0 -0.0 7.730902194976807 5.47491455078125 0.4173222780227661 -0.0 0.0 -0.0 2.905566453933716 0.9650754332542419 0.10300818830728531 -0.0 0.0 -0.0 10.278596878051758 0.7318810820579529 0.026273518800735474 -0.0 0.0 -0.0 2.221662998199463 -0.7334509491920471 -0.20832103490829468 -0.0 -0.0 -0.0 -73.97699737548828 32.9031982421875 -7.623414993286133 17.541399002075195 -10.201895713806152 -32.99929428100586 0.10225751250982285 8.439176559448242 -1.195830225944519 -0.0 0.0 -0.0 -0.0 0.0 -0.0 -0.0 0.0 -0.0 -7.730902194976807 5.47491455078125 -0.4173222780227661 -0.0 0.0 -0.0 -2.905566453933716 0.9650754332542419 -0.10300818830728531 -0.0 0.0 -0.0 -10.278596878051758 0.7318810820579529 -0.026273518800735474 -0.0 0.0 -0.0 -2.221662998199463 -0.7334509491920471 0.20832103490829468 -0.0 0.0 -0.0 -35.316505432128906 -63.14168167114258 -31.36510467529297 -2.0571348667144775 70.40858459472656 2.693707227706909 2.67523193359375 -6.999795436859131 14.298398971557617 0.0 0.0 0.0 4.469508171081543 8.04879379272461 3.6509411334991455 -0.05245591700077057 36.04370880126953 -2.3216028213500977 23.658994674682617 -21.222000122070312 42.067806243896484
